<svg height="200" viewBox="0 0 1024 1024" width="200" xmlns="http://www.w3.org/2000/svg"><path d="m698.026667 597.333333c3.413333-28.16 5.973333-56.32 5.973333-85.333333s-2.56-57.173333-5.973333-85.333333h144.213333c6.826667 27.306666 11.093333 55.893333 11.093333 85.333333s-4.266666 58.026667-11.093333 85.333333m-219.733333 237.226667c25.6-47.36 45.226666-98.56 58.88-151.893333h125.866666c-40.96 70.4-106.24 125.013333-184.746666 151.893333m-10.666667-237.226667h-199.68c-4.266667-28.16-6.826667-56.32-6.826667-85.333333s2.56-57.6 6.826667-85.333333h199.68c3.84 27.733333 6.826667 56.32 6.826667 85.333333s-2.986667 57.173333-6.826667 85.333333m-99.84 254.293334c-35.413333-51.2-64-107.946667-81.493333-168.96h162.986666c-17.493333 61.013333-46.08 117.76-81.493333 168.96m-170.666667-510.293334h-124.586666c40.533333-70.826666 106.24-125.44 184.32-151.893333-25.6 47.36-44.8 98.56-59.733334 151.893333m-124.586666 341.333334h124.586666c14.933334 53.333333 34.133334 104.533333 59.733334 151.893333-78.08-26.88-143.786667-81.493333-184.32-151.893333m-34.986667-85.333334c-6.826667-27.306666-11.093333-55.893333-11.093333-85.333333s4.266666-58.026667 11.093333-85.333333h144.213333c-3.413333 28.16-5.973333 56.32-5.973333 85.333333s2.56 57.173333 5.973333 85.333333m186.026667-425.386666c35.413333 51.2 64 108.373333 81.493333 169.386666h-162.986666c17.493333-61.013333 46.08-118.186666 81.493333-169.386666m295.253333 169.386666h-125.866666c-13.653334-53.333333-33.28-104.533333-58.88-151.893333 78.506666 26.88 143.786666 81.066667 184.746666 151.893333m-295.253333-256c-235.946667 0-426.666667 192-426.666667 426.666667 0 235.52 191.146667 426.666667 426.666667 426.666667s426.666667-191.146667 426.666667-426.666667-191.146667-426.666667-426.666667-426.666667z" fill="#808080"/></svg>